<svg width="100" height="100" fill="none" xmlns="http://www.w3.org/2000/svg"><circle cx="50" cy="50" r="50" fill="#FF7500" fill-opacity=".2"/><path fill-rule="evenodd" clip-rule="evenodd" d="M36 28c2 0 3 1 3 2v3h3a3 3 0 1 1 0 6h-3v3a3 3 0 1 1-6 0v-3h-3a3 3 0 1 1 0-6h3v-3c0-1 1-2 3-2Zm0 28c2 0 3 1 3 2v3h3a3 3 0 1 1 0 6h-3v3a3 3 0 1 1-6 0v-3h-3a3 3 0 1 1 0-6h3v-3c0-1 1-2 3-2ZM56 28c1 0 2 0 2 2l4 12 9 6a3 3 0 0 1 0 4l-9 6-4 12a3 3 0 0 1-5 0l-3-12-10-6a3 3 0 0 1 0-4l10-6 3-12c0-2 1-2 3-2Z" fill="#FF7500"/></svg>